# xmcd
#
# Track frame offsets: 
#        150
#        12294
#        23193
#        39564
#        52824
#        65156
#        72604
#        81501
#        93857
#        104582
#        115776
#        126274
#        141151
#        154051
#        169065
#        185395
#
# Disc length: 2620 seconds
#
# Revision: 0
# Processed by: cddbd v1.5.2PL0 Copyright (c) Steve Scherf et al.
# Submitted via: ExactAudioCopy v0.99pb5
#
DISCID=df0a3a10
DTITLE=Elvis Presley  - He Touched Me - 2008 by Vic Anesini 
DYEAR=1900
DGENRE=
TTITLE0=He Touched Me
TTITLE1=I've Got Confidence
TTITLE2=Amazing Grace
TTITLE3=Seeing Is Believing
TTITLE4=He Is My Everything
TTITLE5=Bosom Of Abraham
TTITLE6=An Evening Prayer
TTITLE7=Lead Me, Guide Me
TTITLE8=There Is No God But God
TTITLE9=A Thing Called Love
TTITLE10=I, John
TTITLE11=Reach Out To Jesus
TTITLE12=Only Believe
TTITLE13=Put Your Hand In The Hand
TTITLE14=I Got A Feelin' In My Body
TTITLE15=Help Me
EXTD=
EXTT0=
EXTT1=
EXTT2=
EXTT3=
EXTT4=
EXTT5=
EXTT6=
EXTT7=
EXTT8=
EXTT9=
EXTT10=
EXTT11=
EXTT12=
EXTT13=
EXTT14=
EXTT15=
PLAYORDER=
